<svg xmlns="http://www.w3.org/2000/svg" width="2858.697" height="1209.221" viewBox="0 0 2858.697 1209.221"><path fill="#fff" d="M514.796.057h-176.109v285.642l-171.388-285.642h-167.299v582.533h176.117v-252.48l172.148 252.48h156.953l172.149-252.48v252.48h176.116v-582.533h-167.292l-171.395 285.641v-285.641m-379.321 198.297v343.593h-94.832v-501.248h103.649l235.037 391.732v-391.732h94.825v501.248h-104.404l-234.275-343.593zM677.145 626.221v418.09299999999996l-78.918-132.043-171.082-285.64v.018-.018l-171.583 285.64-79.417 132.043v-418.09299999999996h-176v583h245.623l172.377-252.741v-.259h17v.259l172.571 252.741h245.429v-583zM1029.598 1209.164v-1209.107h176.115v1209.107h-176.115zM2859.145 176.221v-176h-605v1209h605v-176h-429v-303h340v-176h-340v-378z"/><g fill="#fff"><path d="M1672.145 730.221"/><path d="M1672.145 730.221h-114v479h-176v-1209h470.348c204.777 0 255.683 192.302 255.683 326.653 0 297.412-80.829 379.188-230.173 398.001l.128.201 288.015 484.145h-209.219l-284.901-479m-113.881-176h236.369c80.868 0 138.253-51.65 138.253-192.637 0-134.351-56.085-185.363-138.253-185.363h-236.369v378z"/></g></svg>